<svg xmlns="http://www.w3.org/2000/svg" viewBox="8.129032258064516 2.96 234.26392961876832 355.2" version="1.1" id="svg" style="max-height: 500px" width="234.26392961876832" height="355.2"><path fill-rule="evenodd" fill="black" stroke="none" d="M122.217 7.353 C 122.641 9.571,122.454 9.743,120.448 8.980 C 117.485 7.854,117.000 8.513,117.000 13.667 C 117.000 17.173,117.344 18.000,118.800 18.000 C 119.790 18.000,121.091 17.509,121.691 16.909 C 122.479 16.121,122.710 16.728,122.524 19.092 C 122.262 22.421,118.625 26.504,116.881 25.426 C 116.380 25.117,115.324 23.319,114.536 21.432 C 113.031 17.829,109.455 16.652,108.396 19.410 C 108.099 20.185,106.763 21.094,105.428 21.429 C 104.092 21.764,103.000 22.705,103.000 23.519 C 103.000 24.334,102.351 25.000,101.557 25.000 C 100.763 25.000,99.525 25.817,98.807 26.816 C 97.058 29.246,94.489 30.181,88.500 30.567 C 81.711 31.005,77.702 31.983,76.475 33.499 C 75.911 34.196,74.610 34.932,73.582 35.133 C 72.555 35.335,71.216 36.390,70.607 37.477 C 69.998 38.564,68.858 39.967,68.072 40.593 C 66.112 42.158,65.779 50.978,67.654 51.697 C 68.479 52.014,68.824 52.979,68.489 54.033 C 68.139 55.137,68.635 56.345,69.775 57.165 C 70.796 57.899,71.929 59.298,72.293 60.273 C 72.657 61.248,73.752 62.343,74.727 62.707 C 75.702 63.071,77.060 64.145,77.744 65.095 C 78.429 66.045,80.790 67.127,82.991 67.498 C 85.511 67.924,87.719 69.098,88.955 70.670 C 90.904 73.148,90.956 73.155,96.209 71.664 C 113.477 66.764,137.989 66.747,157.317 71.622 L 163.134 73.089 166.602 70.045 C 168.534 68.348,171.203 67.000,172.628 67.000 C 174.309 67.000,175.359 66.342,175.688 65.085 C 175.964 64.031,177.271 62.898,178.594 62.566 C 179.918 62.234,181.000 61.473,181.000 60.875 C 181.000 60.277,182.141 58.890,183.535 57.793 C 185.221 56.468,185.878 55.190,185.495 53.984 C 185.178 52.985,185.389 51.878,185.964 51.523 C 187.430 50.616,186.408 41.772,184.693 40.517 C 183.922 39.954,182.970 38.482,182.578 37.246 C 182.172 35.966,181.056 35.000,179.982 35.000 C 178.947 35.000,177.682 34.254,177.171 33.342 C 176.661 32.430,175.326 31.616,174.205 31.534 C 173.084 31.451,171.418 30.762,170.502 30.002 C 169.334 29.032,168.340 28.913,167.169 29.603 C 163.767 31.606,156.000 30.047,156.000 27.362 C 156.000 26.578,155.213 25.643,154.250 25.284 C 153.287 24.925,151.912 23.815,151.193 22.816 C 150.475 21.817,149.060 21.000,148.050 21.000 C 147.040 21.000,145.955 20.325,145.638 19.500 C 144.690 17.028,141.279 17.799,139.000 21.000 C 135.696 25.640,130.631 24.323,130.350 18.750 C 130.200 15.772,130.918 15.318,132.800 17.200 C 134.713 19.113,136.178 16.774,135.818 12.382 C 135.502 8.519,135.092 8.232,131.742 9.536 C 130.336 10.083,130.036 9.748,130.242 7.860 C 130.474 5.740,130.055 5.468,126.121 5.186 C 121.937 4.886,121.764 4.983,122.217 7.353 M128.833 8.750 C 128.521 11.504,128.986 11.738,132.250 10.467 C 133.687 9.908,134.000 10.341,134.000 12.893 C 134.000 16.331,133.768 16.481,130.852 14.921 C 129.028 13.944,128.868 14.111,129.168 16.671 C 129.468 19.225,129.177 19.531,126.178 19.819 C 123.055 20.118,122.925 20.008,124.009 17.983 C 125.498 15.201,124.623 14.395,121.606 15.770 C 119.348 16.799,119.179 16.656,118.798 13.396 C 118.403 10.016,118.468 9.944,121.342 10.575 C 123.960 11.150,124.231 10.992,123.754 9.167 C 123.327 7.534,123.760 7.028,125.858 6.706 C 127.311 6.482,128.645 6.232,128.822 6.150 C 128.998 6.067,129.003 7.237,128.833 8.750 M112.820 21.828 C 113.027 23.240,112.610 24.000,111.629 24.000 C 109.684 24.000,108.661 22.325,109.412 20.369 C 110.226 18.247,112.432 19.191,112.820 21.828 M144.664 20.567 C 145.574 22.939,143.441 24.611,141.530 23.025 C 140.346 22.042,140.246 21.409,141.110 20.367 C 142.608 18.563,143.923 18.637,144.664 20.567 M131.087 24.163 C 132.360 26.542,131.433 29.698,129.093 30.950 C 127.093 32.021,122.381 31.753,121.248 30.505 C 120.837 30.051,121.036 29.987,121.691 30.362 C 122.552 30.856,122.730 30.108,122.332 27.656 C 121.890 24.936,122.211 23.965,123.955 22.744 C 126.564 20.917,129.682 21.537,131.087 24.163 M150.334 23.427 C 151.096 25.414,148.269 27.669,146.825 26.225 C 145.444 24.844,146.478 22.000,148.362 22.000 C 149.145 22.000,150.032 22.642,150.334 23.427 M108.264 23.598 C 109.384 24.717,107.792 27.000,105.893 27.000 C 104.667 27.000,104.000 26.296,104.000 25.000 C 104.000 23.093,106.830 22.163,108.264 23.598 M145.224 27.144 C 153.484 32.444,156.862 39.549,153.865 45.316 C 152.348 48.233,152.504 48.131,150.657 47.422 C 149.202 46.863,149.186 46.572,150.514 44.676 C 152.787 41.431,152.301 37.716,149.009 33.171 C 146.036 29.067,142.410 27.245,139.464 28.375 C 137.548 29.111,133.202 38.221,132.367 43.250 C 132.024 45.313,131.352 47.000,130.872 47.000 C 129.439 47.000,129.884 39.214,131.546 35.218 C 133.541 30.422,137.979 24.000,139.298 24.000 C 139.863 24.000,142.530 25.415,145.224 27.144 M117.314 27.750 C 120.075 30.347,120.199 30.375,119.551 28.250 C 119.133 26.879,119.288 26.000,119.948 26.000 C 120.544 26.000,120.942 27.238,120.833 28.750 C 120.724 30.262,121.167 32.483,121.817 33.684 C 123.253 36.336,123.399 47.000,122.000 47.000 C 121.450 47.000,120.975 45.538,120.944 43.750 C 120.836 37.466,115.766 28.000,112.509 28.000 C 110.480 28.000,103.556 35.243,102.006 38.986 C 100.960 41.510,101.018 42.379,102.370 44.442 C 103.525 46.205,103.657 47.094,102.837 47.601 C 101.308 48.546,99.354 45.699,98.535 41.333 C 97.990 38.431,98.296 37.304,100.183 35.252 C 103.517 31.627,111.986 25.000,113.285 25.000 C 113.893 25.000,115.706 26.238,117.314 27.750 M133.747 28.750 C 132.545 30.813,130.986 33.095,130.281 33.821 C 129.576 34.548,129.000 35.592,129.000 36.141 C 129.000 37.873,124.536 36.583,124.187 34.750 C 123.929 33.396,124.537 33.000,126.870 33.000 C 130.080 33.000,133.000 30.036,133.000 26.777 C 133.000 25.800,133.660 25.000,134.466 25.000 C 135.627 25.000,135.477 25.782,133.747 28.750 M103.788 28.864 C 103.617 29.751,102.693 30.628,101.735 30.812 C 99.600 31.224,98.199 28.113,100.014 26.992 C 101.880 25.838,104.153 26.966,103.788 28.864 M154.677 27.601 C 155.530 29.823,152.866 31.294,151.132 29.560 C 150.379 28.807,150.068 27.699,150.441 27.096 C 151.447 25.468,153.974 25.769,154.677 27.601 M114.900 30.379 C 115.812 31.478,115.544 31.854,113.587 32.228 C 110.133 32.888,108.224 31.545,110.630 30.147 C 113.089 28.718,113.542 28.743,114.900 30.379 M144.447 29.915 C 144.758 30.418,144.447 31.019,143.756 31.252 C 142.030 31.833,139.000 30.961,139.000 29.883 C 139.000 28.714,143.722 28.742,144.447 29.915 M98.824 32.336 C 99.236 34.461,96.087 35.758,94.956 33.929 C 93.983 32.354,95.738 29.746,97.400 30.300 C 98.005 30.501,98.646 31.417,98.824 32.336 M158.824 32.336 C 159.217 34.363,156.292 35.692,154.775 34.175 C 153.988 33.388,154.048 32.647,154.992 31.509 C 156.554 29.627,158.375 30.020,158.824 32.336 M170.559 33.904 C 169.701 35.293,167.318 35.324,166.473 33.956 C 166.118 33.382,166.390 32.235,167.078 31.406 C 168.172 30.088,168.510 30.082,169.782 31.354 C 170.582 32.154,170.932 33.301,170.559 33.904 M86.820 33.828 C 87.055 35.428,86.622 36.000,85.177 36.000 C 82.824 36.000,81.706 33.694,83.291 32.109 C 84.886 30.514,86.443 31.272,86.820 33.828 M92.824 33.336 C 93.236 35.461,90.087 36.758,88.956 34.929 C 87.983 33.354,89.738 30.746,91.400 31.300 C 92.005 31.501,92.646 32.417,92.824 33.336 M164.500 33.570 C 164.500 34.616,163.711 35.625,162.747 35.810 C 160.532 36.237,159.214 33.111,161.104 31.915 C 163.086 30.662,164.500 31.351,164.500 33.570 M141.500 34.000 C 141.500 34.825,140.488 35.644,139.250 35.820 C 137.518 36.065,137.000 35.646,137.000 34.000 C 137.000 32.354,137.518 31.935,139.250 32.180 C 140.488 32.356,141.500 33.175,141.500 34.000 M147.750 33.749 C 148.297 35.392,145.164 36.564,143.820 35.220 C 143.245 34.645,143.092 33.660,143.480 33.032 C 144.364 31.602,147.194 32.078,147.750 33.749 M81.334 34.427 C 82.096 36.414,79.269 38.669,77.825 37.225 C 76.444 35.844,77.478 33.000,79.362 33.000 C 80.145 33.000,81.032 33.642,81.334 34.427 M110.664 34.567 C 111.571 36.931,109.443 38.613,107.542 37.035 C 106.672 36.313,106.000 36.198,106.000 36.771 C 106.000 38.162,107.855 38.662,112.000 38.387 C 117.312 38.033,117.716 37.861,115.000 37.105 C 112.160 36.315,111.630 33.695,114.209 33.198 C 115.382 32.972,116.402 34.025,117.459 36.557 C 119.444 41.307,119.448 41.285,116.364 42.716 C 114.597 43.537,113.155 43.618,111.937 42.966 C 109.730 41.785,105.304 41.698,104.609 42.823 C 104.330 43.276,105.541 43.676,107.300 43.713 C 109.060 43.749,111.625 43.880,113.000 44.003 C 114.375 44.126,116.513 43.898,117.750 43.496 C 119.756 42.846,120.000 43.102,120.000 45.864 C 120.000 49.763,116.672 50.916,112.157 48.581 C 110.475 47.712,108.435 47.000,107.622 47.000 C 106.157 47.000,102.000 42.492,102.000 40.903 C 102.000 40.448,104.860 40.342,108.355 40.669 C 111.850 40.995,115.418 40.866,116.284 40.381 C 117.322 39.800,115.696 39.500,111.512 39.500 C 108.022 39.500,104.860 39.193,104.485 38.818 C 103.572 37.905,107.161 33.071,108.781 33.031 C 109.486 33.014,110.333 33.705,110.664 34.567 M176.000 35.000 C 176.000 36.333,175.333 37.000,174.000 37.000 C 172.667 37.000,172.000 36.333,172.000 35.000 C 172.000 33.667,172.667 33.000,174.000 33.000 C 175.333 33.000,176.000 33.667,176.000 35.000 M148.446 38.663 C 145.272 40.984,135.000 39.591,135.000 36.839 C 135.000 35.663,136.394 35.794,137.693 37.093 C 138.462 37.862,139.363 37.876,140.739 37.139 C 142.120 36.401,143.018 36.418,143.800 37.200 C 144.608 38.008,145.525 37.891,147.203 36.765 C 149.994 34.892,151.163 36.677,148.446 38.663 M75.664 37.567 C 75.995 38.429,75.775 39.625,75.175 40.225 C 73.731 41.669,70.904 39.414,71.666 37.427 C 72.398 35.521,74.913 35.609,75.664 37.567 M173.162 38.620 C 177.105 40.605,180.000 44.821,180.000 48.579 C 180.000 52.412,176.044 57.763,174.099 56.561 C 173.148 55.973,173.195 55.428,174.306 54.151 C 177.269 50.746,178.127 48.106,176.971 45.946 C 175.311 42.844,169.956 40.008,165.750 40.004 C 161.752 40.000,160.880 38.736,163.750 37.105 C 165.674 36.012,169.064 36.558,173.162 38.620 M181.559 37.096 C 182.616 38.806,179.282 41.682,177.874 40.274 C 177.247 39.647,177.005 38.429,177.336 37.567 C 178.028 35.764,180.561 35.481,181.559 37.096 M91.000 38.500 C 91.000 39.504,89.996 40.000,87.968 40.000 C 86.300 40.000,83.411 40.637,81.548 41.415 C 75.843 43.799,74.430 48.735,78.114 53.418 C 80.978 57.059,79.449 58.219,76.422 54.703 C 71.135 48.560,72.394 43.079,79.971 39.250 C 85.179 36.618,91.000 36.222,91.000 38.500 M97.000 38.714 C 97.000 39.421,95.875 40.000,94.500 40.000 C 92.227 40.000,91.296 39.037,92.452 37.881 C 93.464 36.870,97.000 37.518,97.000 38.714 M161.000 38.500 C 161.000 39.325,160.587 40.000,160.082 40.000 C 159.577 40.000,158.452 40.273,157.582 40.607 C 156.448 41.042,156.000 40.617,156.000 39.107 C 156.000 37.526,156.624 37.000,158.500 37.000 C 160.056 37.000,161.000 37.567,161.000 38.500 M128.820 40.250 C 128.615 41.690,127.810 42.500,126.583 42.500 C 125.311 42.500,124.610 41.743,124.500 40.250 C 124.371 38.495,124.863 38.000,126.737 38.000 C 128.656 38.000,129.075 38.452,128.820 40.250 M137.128 40.069 C 138.227 40.656,140.468 41.176,142.109 41.222 C 143.939 41.274,144.735 41.665,144.167 42.233 C 142.765 43.635,134.000 42.044,134.000 40.386 C 134.000 38.720,134.511 38.668,137.128 40.069 M150.747 41.586 C 150.494 41.840,149.467 41.733,148.466 41.349 C 146.737 40.685,146.742 40.616,148.573 39.959 C 150.327 39.331,151.857 40.476,150.747 41.586 M71.820 43.250 C 71.644 44.487,70.825 45.500,70.000 45.500 C 69.175 45.500,68.356 44.487,68.180 43.250 C 67.935 41.518,68.354 41.000,70.000 41.000 C 71.646 41.000,72.065 41.518,71.820 43.250 M91.342 43.198 C 92.179 46.402,90.304 48.000,85.706 48.000 C 83.361 48.000,80.897 48.688,79.850 49.636 C 78.175 51.151,77.995 51.151,77.411 49.628 C 76.468 47.172,79.574 43.180,83.255 42.117 C 88.731 40.536,90.715 40.801,91.342 43.198 M97.417 42.645 C 98.111 44.452,95.263 48.280,93.866 47.417 C 93.390 47.123,93.000 45.559,93.000 43.941 C 93.000 41.722,93.465 41.000,94.893 41.000 C 95.934 41.000,97.070 41.740,97.417 42.645 M170.980 42.609 C 173.191 43.493,175.070 44.506,175.157 44.859 C 176.871 51.883,174.610 53.821,165.377 53.238 L 158.254 52.789 159.346 49.894 C 160.582 46.621,163.336 46.089,166.100 48.590 C 167.315 49.690,168.572 49.938,170.178 49.394 C 171.455 48.962,173.175 48.734,174.000 48.888 C 175.219 49.115,175.261 48.922,174.225 47.859 C 173.201 46.807,172.559 46.795,170.959 47.793 C 169.277 48.844,168.468 48.686,165.734 46.768 C 160.113 42.826,159.558 41.000,163.980 41.000 C 165.619 41.000,168.769 41.724,170.980 42.609 M184.664 42.567 C 184.995 43.429,184.775 44.625,184.175 45.225 C 182.731 46.669,179.904 44.414,180.666 42.427 C 181.398 40.521,183.913 40.609,184.664 42.567 M148.797 42.854 C 150.662 44.036,148.097 45.936,141.720 48.095 C 135.982 50.037,133.000 49.298,133.000 45.933 C 133.000 43.287,135.255 42.545,139.159 43.906 C 141.690 44.788,142.770 44.717,144.422 43.560 C 146.896 41.827,147.122 41.791,148.797 42.854 M160.500 44.000 C 160.500 46.169,156.599 45.870,156.175 43.669 C 155.901 42.249,156.347 41.912,158.161 42.169 C 159.447 42.351,160.500 43.175,160.500 44.000 M128.500 45.000 C 128.851 45.567,128.010 46.000,126.559 46.000 C 125.152 46.000,124.000 45.550,124.000 45.000 C 124.000 44.450,124.873 44.000,125.941 44.000 C 127.009 44.000,128.160 44.450,128.500 45.000 M99.430 47.678 C 100.286 49.910,97.447 52.847,95.915 51.315 C 95.115 50.515,95.122 49.640,95.943 48.107 C 97.302 45.567,98.560 45.412,99.430 47.678 M158.016 47.519 C 159.047 48.762,158.950 49.397,157.483 51.019 C 156.497 52.108,155.961 53.000,156.293 53.000 C 156.625 53.000,156.425 54.350,155.850 56.000 C 155.275 57.650,154.451 59.000,154.020 59.000 C 153.589 59.000,153.820 57.313,154.533 55.250 C 155.620 52.109,155.603 51.246,154.429 49.936 C 153.348 48.730,153.299 48.101,154.214 47.186 C 155.774 45.626,156.497 45.690,158.016 47.519 M71.677 48.601 C 72.530 50.823,69.866 52.294,68.132 50.560 C 67.379 49.807,67.068 48.699,67.441 48.096 C 68.447 46.468,70.974 46.769,71.677 48.601 M129.777 48.557 C 131.000 49.413,132.000 49.808,132.000 49.434 C 132.000 49.061,132.675 49.315,133.500 50.000 C 135.270 51.469,135.491 55.579,133.854 56.590 C 133.061 57.080,132.894 56.558,133.313 54.891 C 133.645 53.567,133.492 51.812,132.974 50.992 C 132.267 49.874,132.027 50.296,132.015 52.679 C 131.996 56.610,129.741 59.000,126.051 59.000 C 121.047 59.000,118.813 53.778,122.055 49.657 C 124.439 46.627,126.586 46.321,129.777 48.557 M186.000 48.893 C 186.000 51.128,183.688 52.288,182.200 50.800 C 180.712 49.312,181.872 47.000,184.107 47.000 C 185.298 47.000,186.000 47.702,186.000 48.893 M93.997 50.245 C 96.542 53.387,95.598 54.148,90.066 53.414 C 87.254 53.041,84.441 53.229,83.245 53.869 C 81.651 54.722,80.924 54.614,79.893 53.371 C 78.008 51.100,81.428 48.696,85.500 49.428 C 87.150 49.724,89.175 49.531,90.000 48.999 C 92.002 47.707,91.921 47.681,93.997 50.245 M109.777 49.557 C 114.057 52.554,111.806 60.000,106.620 60.000 C 101.365 60.000,98.814 54.778,102.055 50.657 C 104.439 47.627,106.586 47.321,109.777 49.557 M124.155 49.604 C 119.851 52.619,122.441 58.859,127.472 57.596 C 130.006 56.960,131.809 53.118,130.538 51.062 C 129.081 48.704,126.335 48.077,124.155 49.604 M151.945 50.657 C 155.186 54.778,152.635 60.000,147.380 60.000 C 142.542 60.000,140.211 53.634,143.655 49.829 C 146.022 47.214,149.511 47.562,151.945 50.657 M140.968 51.584 C 140.428 53.005,140.240 54.580,140.552 55.084 C 140.863 55.588,140.641 56.000,140.059 56.000 C 138.613 56.000,138.717 51.683,140.200 50.200 C 141.939 48.461,142.068 48.692,140.968 51.584 M144.898 50.881 C 140.536 54.414,144.984 60.684,149.962 58.020 C 151.983 56.939,152.648 53.491,151.235 51.427 C 149.805 49.340,147.091 49.106,144.898 50.881 M103.200 51.200 C 101.542 52.858,101.696 56.503,103.487 57.989 C 107.264 61.124,113.124 55.264,109.989 51.487 C 108.503 49.696,104.858 49.542,103.200 51.200 M119.574 53.479 C 119.630 56.098,119.349 56.704,118.432 55.944 C 117.042 54.790,115.750 50.728,117.024 51.515 C 117.485 51.800,118.144 51.575,118.490 51.016 C 119.418 49.514,119.493 49.684,119.574 53.479 M129.535 52.112 C 130.878 56.341,124.957 58.657,123.370 54.523 C 122.413 52.028,123.772 50.000,126.401 50.000 C 128.030 50.000,129.092 50.715,129.535 52.112 M99.572 53.750 C 99.611 55.263,100.025 57.400,100.491 58.500 C 101.328 60.473,101.310 60.474,99.170 58.595 C 96.756 56.475,96.383 54.017,98.200 52.200 C 98.860 51.540,99.422 51.000,99.450 51.000 C 99.478 51.000,99.532 52.237,99.572 53.750 M109.535 53.112 C 110.878 57.341,104.957 59.657,103.370 55.523 C 102.413 53.028,103.772 51.000,106.401 51.000 C 108.030 51.000,109.092 51.715,109.535 53.112 M115.000 53.441 C 115.000 54.784,114.625 56.114,114.167 56.397 C 113.708 56.680,113.333 55.582,113.333 53.956 C 113.333 52.330,113.708 51.000,114.167 51.000 C 114.625 51.000,115.000 52.098,115.000 53.441 M138.000 53.500 C 138.000 54.875,137.550 56.000,137.000 56.000 C 136.450 56.000,136.000 54.875,136.000 53.500 C 136.000 52.125,136.450 51.000,137.000 51.000 C 137.550 51.000,138.000 52.125,138.000 53.500 M150.798 53.588 C 151.227 56.590,148.688 58.439,146.064 57.034 C 144.038 55.950,143.308 53.025,144.713 51.621 C 146.227 50.106,150.498 51.487,150.798 53.588 M73.824 54.336 C 74.236 56.461,71.087 57.758,69.956 55.929 C 68.983 54.354,70.738 51.746,72.400 52.300 C 73.005 52.501,73.646 53.417,73.824 54.336 M184.000 55.000 C 184.000 56.333,183.333 57.000,182.000 57.000 C 180.667 57.000,180.000 56.333,180.000 55.000 C 180.000 53.667,180.667 53.000,182.000 53.000 C 183.333 53.000,184.000 53.667,184.000 55.000 M158.440 57.382 C 158.079 58.822,157.382 60.000,156.892 60.000 C 155.764 60.000,155.774 59.724,157.028 56.426 C 158.295 53.093,159.339 53.799,158.440 57.382 M161.533 56.937 C 160.698 58.552,160.312 60.651,160.677 61.601 C 161.128 62.775,160.965 63.097,160.170 62.605 C 159.526 62.207,159.000 61.263,159.000 60.506 C 159.000 58.129,160.904 54.000,162.001 54.000 C 162.629 54.000,162.440 55.182,161.533 56.937 M170.043 55.023 C 173.059 56.637,174.147 59.460,172.994 62.685 C 172.033 65.375,172.059 65.411,173.584 63.500 C 175.164 61.519,175.176 61.519,174.830 63.480 C 174.560 65.007,173.568 65.521,170.490 65.724 C 168.296 65.869,165.631 66.195,164.570 66.447 C 163.508 66.700,159.518 66.042,155.702 64.985 C 151.887 63.927,144.114 62.539,138.430 61.899 L 128.094 60.736 131.759 58.868 C 136.500 56.451,139.107 56.510,142.412 59.109 C 144.677 60.891,145.906 61.117,150.318 60.566 C 155.166 59.960,155.789 60.133,158.951 62.957 C 162.171 65.831,165.810 67.410,163.200 64.800 C 161.142 62.742,161.744 57.292,164.223 55.557 C 166.840 53.723,167.501 53.663,170.043 55.023 M90.171 56.655 C 92.543 58.801,92.504 62.496,90.083 64.917 C 89.029 65.971,88.415 67.082,88.719 67.386 C 89.023 67.690,87.748 67.504,85.886 66.973 C 84.024 66.442,81.938 65.245,81.250 64.313 C 77.002 58.554,84.838 51.828,90.171 56.655 M93.887 57.652 C 94.552 59.111,94.730 60.670,94.282 61.118 C 93.834 61.566,92.980 60.372,92.383 58.466 C 91.107 54.389,92.145 53.827,93.887 57.652 M96.802 57.464 C 97.419 58.820,97.580 60.142,97.158 60.402 C 96.737 60.663,95.893 59.554,95.283 57.938 C 93.942 54.387,95.218 53.989,96.802 57.464 M82.496 58.004 C 79.803 60.981,81.816 65.000,86.000 65.000 C 90.184 65.000,92.197 60.981,89.504 58.004 C 88.506 56.902,86.930 56.000,86.000 56.000 C 85.070 56.000,83.494 56.902,82.496 58.004 M164.200 57.200 C 163.540 57.860,163.000 59.345,163.000 60.500 C 163.000 61.655,163.540 63.140,164.200 63.800 C 167.005 66.605,172.000 64.492,172.000 60.500 C 172.000 57.820,170.180 56.000,167.500 56.000 C 166.345 56.000,164.860 56.540,164.200 57.200 M77.664 58.567 C 77.995 59.429,77.753 60.647,77.126 61.274 C 75.718 62.682,72.384 59.806,73.441 58.096 C 74.439 56.481,76.972 56.764,77.664 58.567 M88.866 58.724 C 90.139 61.000,88.518 64.000,86.015 64.000 C 83.488 64.000,81.878 61.096,83.120 58.776 C 84.332 56.511,87.611 56.482,88.866 58.724 M121.413 58.919 L 125.326 60.769 121.413 61.334 C 119.261 61.644,114.887 62.182,111.693 62.528 C 106.548 63.086,97.238 65.360,91.500 67.459 C 90.209 67.932,90.824 66.916,93.235 64.595 C 96.676 61.284,97.444 61.000,102.961 61.000 C 107.188 61.000,109.916 60.412,112.226 59.004 C 116.188 56.588,116.480 56.586,121.413 58.919 M170.798 59.588 C 170.962 60.736,170.406 62.248,169.561 62.949 C 166.513 65.479,162.521 61.487,165.051 58.439 C 166.824 56.302,170.432 57.023,170.798 59.588 M179.664 58.567 C 180.498 60.739,178.382 62.782,176.867 61.267 C 175.587 59.987,176.380 57.000,178.000 57.000 C 178.585 57.000,179.333 57.705,179.664 58.567 M79.985 65.309 C 79.993 65.754,79.550 65.840,79.000 65.500 C 78.450 65.160,78.007 64.121,78.015 63.191 C 78.029 61.734,78.165 61.707,79.000 63.000 C 79.533 63.825,79.976 64.864,79.985 65.309 M119.000 63.418 C 119.000 65.753,117.343 67.000,114.238 67.000 C 110.753 67.000,110.722 66.964,112.500 65.000 C 114.026 63.313,119.000 62.103,119.000 63.418 M128.000 63.878 C 128.000 65.366,125.652 66.591,122.250 66.877 C 118.862 67.162,118.158 66.242,120.200 64.200 C 121.577 62.823,128.000 62.557,128.000 63.878 M136.000 65.000 C 135.246 66.409,133.906 67.000,131.465 67.000 C 129.559 67.000,128.000 66.640,128.000 66.200 C 128.000 64.438,130.578 63.000,133.735 63.000 C 136.760 63.000,136.971 63.186,136.000 65.000 M145.774 64.446 C 145.924 64.593,145.759 65.464,145.408 66.380 C 144.903 67.696,144.003 67.909,141.134 67.391 C 136.697 66.590,136.803 66.676,137.616 64.558 C 138.148 63.172,138.993 62.963,141.890 63.504 C 143.875 63.875,145.623 64.299,145.774 64.446 M110.316 65.901 C 109.973 67.213,108.684 67.940,106.159 68.245 C 104.147 68.489,102.341 68.281,102.146 67.783 C 101.952 67.285,101.052 67.545,100.146 68.361 C 98.064 70.237,93.000 71.562,93.000 70.231 C 93.000 68.490,95.990 66.694,99.291 66.451 C 101.056 66.321,103.625 65.745,105.000 65.171 C 109.037 63.485,110.881 63.738,110.316 65.901 M153.784 65.845 C 154.490 66.293,154.800 67.357,154.474 68.208 C 153.984 69.483,153.196 69.583,150.011 68.775 C 147.337 68.096,146.308 67.361,146.678 66.396 C 147.260 64.879,151.717 64.534,153.784 65.845 M162.231 68.295 C 164.139 69.137,164.709 69.901,164.121 70.832 C 162.937 72.709,154.923 70.365,155.690 68.366 C 156.326 66.708,158.579 66.684,162.231 68.295 M92.000 70.000 C 92.000 70.550,91.550 71.000,91.000 71.000 C 90.450 71.000,90.000 70.550,90.000 70.000 C 90.000 69.450,90.450 69.000,91.000 69.000 C 91.550 69.000,92.000 69.450,92.000 70.000 M87.000 83.091 C 66.522 84.526,34.267 88.450,21.141 91.104 L 15.782 92.187 16.329 170.844 C 16.766 233.806,17.175 251.396,18.376 259.004 C 26.892 312.925,70.439 353.000,120.516 353.000 C 172.445 353.000,216.215 320.712,230.328 271.995 C 234.676 256.984,234.994 249.955,234.997 168.817 C 235.000 96.649,234.897 92.104,233.250 91.617 C 224.492 89.024,194.070 84.709,172.605 83.017 C 157.807 81.850,104.053 81.897,87.000 83.091 M115.813 90.250 C 115.505 93.452,115.412 93.507,109.551 94.000 L 103.603 94.500 103.874 100.250 L 104.145 106.000 98.073 106.000 L 92.000 106.000 92.000 112.000 L 92.000 118.000 86.000 118.000 L 80.000 118.000 80.000 124.000 L 80.000 130.000 74.000 130.000 L 68.000 130.000 68.000 136.000 L 68.000 142.000 62.000 142.000 L 56.000 142.000 56.000 148.000 L 56.000 154.000 50.000 154.000 L 44.000 154.000 44.000 160.000 L 44.000 166.000 38.050 166.000 L 32.100 166.000 31.800 171.750 L 31.500 177.500 26.750 177.805 C 22.989 178.046,22.000 177.786,22.000 176.555 C 22.000 175.445,23.001 175.000,25.500 175.000 L 29.000 175.000 29.000 169.000 L 29.000 163.000 35.000 163.000 L 41.000 163.000 41.000 157.000 L 41.000 151.000 47.000 151.000 L 53.000 151.000 53.000 145.000 L 53.000 139.000 59.000 139.000 L 65.000 139.000 65.000 133.000 L 65.000 127.000 71.000 127.000 L 77.000 127.000 77.000 121.000 L 77.000 115.000 83.000 115.000 L 89.000 115.000 89.000 109.000 L 89.000 103.000 94.500 103.000 L 100.000 103.000 100.000 97.000 L 100.000 91.000 106.500 91.000 C 112.333 91.000,113.000 90.795,113.000 89.000 C 113.000 87.853,113.667 87.000,114.563 87.000 C 115.725 87.000,116.046 87.836,115.813 90.250 M134.195 91.750 L 134.500 96.500 139.250 96.805 L 144.000 97.110 144.000 134.055 L 144.000 171.000 180.943 171.000 L 217.885 171.000 218.193 175.250 L 218.500 179.500 223.500 179.585 L 228.500 179.670 228.777 193.835 L 229.055 208.000 186.527 208.000 L 144.000 208.000 144.000 218.025 C 144.000 228.001,143.987 228.055,141.250 229.257 C 136.444 231.369,122.430 230.665,114.000 227.889 L 106.500 225.419 106.210 217.210 L 105.919 209.000 63.960 209.000 L 22.000 209.000 22.000 194.173 L 22.000 179.346 24.987 179.785 C 26.630 180.026,29.105 179.939,30.487 179.593 C 32.645 179.051,33.000 178.399,33.000 174.981 L 33.000 171.000 69.500 171.000 L 106.000 171.000 106.000 134.052 L 106.000 97.105 111.250 96.802 L 116.500 96.500 116.805 91.750 L 117.110 87.000 125.500 87.000 L 133.890 87.000 134.195 91.750 M138.000 89.000 C 138.000 90.795,138.667 91.000,144.500 91.000 L 151.000 91.000 151.000 97.000 L 151.000 103.000 156.500 103.000 L 162.000 103.000 162.000 109.000 L 162.000 115.000 168.000 115.000 L 174.000 115.000 174.000 121.000 L 174.000 127.000 180.000 127.000 L 186.000 127.000 186.000 133.000 L 186.000 139.000 192.000 139.000 L 198.000 139.000 198.000 145.000 L 198.000 151.000 204.000 151.000 L 210.000 151.000 210.000 157.000 L 210.000 163.000 216.000 163.000 L 222.000 163.000 222.000 169.000 L 222.000 175.000 225.500 175.000 C 227.944 175.000,229.000 175.452,229.000 176.500 C 229.000 177.633,227.778 178.000,224.000 178.000 L 219.000 178.000 219.000 172.000 L 219.000 166.000 213.000 166.000 L 207.000 166.000 207.000 160.000 L 207.000 154.000 201.000 154.000 L 195.000 154.000 195.000 148.000 L 195.000 142.000 189.000 142.000 L 183.000 142.000 183.000 136.000 L 183.000 130.000 177.000 130.000 L 171.000 130.000 171.000 124.000 L 171.000 118.000 165.000 118.000 L 159.000 118.000 159.000 112.000 L 159.000 106.000 152.927 106.000 L 146.855 106.000 147.126 100.250 L 147.397 94.500 141.449 94.000 C 135.588 93.507,135.495 93.452,135.187 90.250 C 134.954 87.836,135.275 87.000,136.437 87.000 C 137.333 87.000,138.000 87.853,138.000 89.000 M105.315 180.007 C 102.300 181.222,100.707 184.612,101.392 188.355 C 102.121 192.341,99.709 200.551,97.867 200.353 C 97.115 200.273,88.668 197.230,79.096 193.591 C 69.524 189.952,61.509 187.158,61.285 187.382 C 61.061 187.606,63.943 192.100,67.689 197.368 L 74.500 206.948 94.624 206.974 C 117.562 207.004,119.031 207.376,141.250 218.782 C 141.662 218.993,141.996 218.117,141.990 216.833 C 141.972 212.523,137.295 204.549,131.123 198.305 C 126.490 193.618,125.000 191.413,125.000 189.244 C 125.000 182.256,113.328 176.779,105.315 180.007 M111.965 184.934 C 114.278 189.256,112.166 197.000,108.674 197.000 C 106.394 197.000,104.000 193.557,104.000 190.279 C 104.000 185.582,105.596 183.000,108.500 183.000 C 109.879 183.000,111.377 183.837,111.965 184.934 M105.000 217.000 L 105.000 224.000 96.876 224.000 L 88.752 224.000 84.626 219.315 C 82.357 216.738,79.680 213.588,78.677 212.315 L 76.855 210.000 90.927 210.000 L 105.000 210.000 105.000 217.000 M158.674 226.005 C 165.631 229.308,171.075 232.258,170.772 232.561 C 170.469 232.864,167.584 232.432,164.361 231.602 C 161.137 230.771,155.463 229.784,151.750 229.408 L 145.000 228.724 145.000 224.362 C 145.000 221.963,145.231 220.000,145.513 220.000 C 145.795 220.000,151.718 222.702,158.674 226.005 M127.500 232.706 C 133.170 233.063,136.752 232.771,139.799 231.705 L 144.098 230.200 143.799 235.350 C 143.507 240.378,143.406 240.532,139.500 241.863 C 133.521 243.900,119.668 243.633,112.500 241.343 L 106.500 239.426 106.205 233.321 L 105.910 227.216 112.705 229.710 C 116.891 231.246,122.572 232.397,127.500 232.706 M102.750 237.582 C 104.783 238.171,105.000 238.854,105.000 244.684 C 105.000 250.361,104.790 251.072,103.250 250.610 C 98.628 249.223,82.977 247.822,77.963 248.346 C 74.868 248.670,67.659 250.139,61.945 251.611 C 52.285 254.099,50.552 254.247,37.288 253.710 C 29.442 253.392,22.567 252.850,22.011 252.507 C 20.481 251.561,20.704 238.992,22.250 239.036 C 22.938 239.055,26.200 239.723,29.500 240.520 C 39.335 242.895,49.934 242.411,63.002 238.991 C 73.684 236.195,75.423 236.015,87.500 236.456 C 94.650 236.717,101.513 237.223,102.750 237.582 M185.737 238.633 C 200.050 242.492,217.048 242.373,227.563 238.338 C 228.729 237.890,229.000 239.118,229.000 244.848 L 229.000 251.909 225.250 252.679 C 223.188 253.102,215.650 253.460,208.500 253.474 C 197.315 253.496,193.965 253.097,184.508 250.610 C 174.467 247.970,172.564 247.773,162.508 248.333 C 156.454 248.670,150.037 249.377,148.250 249.903 L 145.000 250.860 145.000 244.449 C 145.000 238.612,145.201 237.994,147.250 237.549 C 152.149 236.484,154.910 236.267,165.237 236.136 C 173.992 236.025,177.778 236.486,185.737 238.633 M118.000 253.701 C 124.164 255.025,126.836 255.119,133.000 254.226 C 137.125 253.628,141.287 252.835,142.250 252.463 C 143.742 251.886,144.000 252.391,144.000 255.893 C 144.000 258.152,144.113 259.991,144.250 259.980 C 144.387 259.970,148.100 259.310,152.500 258.515 C 164.658 256.319,173.340 256.617,184.641 259.620 C 196.466 262.763,212.179 263.815,221.093 262.061 C 224.449 261.401,227.402 261.069,227.656 261.323 C 228.287 261.954,225.330 273.070,224.243 274.157 C 223.763 274.637,219.103 275.310,213.886 275.652 C 203.698 276.321,194.838 275.216,184.135 271.942 C 173.149 268.580,153.913 268.410,145.598 271.601 C 144.265 272.112,144.000 271.383,144.000 267.205 L 144.000 262.196 139.341 263.598 C 131.509 265.955,116.814 264.953,107.696 261.440 C 106.067 260.812,105.922 261.302,106.196 266.526 C 106.498 272.274,106.523 272.316,110.500 273.762 C 116.503 275.946,133.436 276.482,139.250 274.674 L 144.000 273.196 144.000 277.928 L 144.000 282.659 150.750 281.240 C 159.904 279.315,175.099 280.088,186.000 283.034 C 192.552 284.804,197.307 285.350,206.747 285.415 C 213.483 285.462,218.995 285.825,218.997 286.221 C 218.999 286.618,217.871 289.497,216.490 292.618 L 213.981 298.293 204.740 297.707 C 199.658 297.385,190.016 295.969,183.314 294.561 C 167.990 291.341,156.914 291.359,145.750 294.623 C 144.229 295.068,144.000 294.393,144.000 289.460 C 144.000 285.271,143.666 283.914,142.724 284.276 C 134.506 287.429,122.543 287.373,112.000 284.131 L 106.500 282.440 106.000 276.970 L 105.500 271.500 99.500 270.217 C 90.269 268.243,73.476 269.294,62.500 272.532 C 55.058 274.727,51.423 275.199,41.500 275.257 C 34.900 275.295,28.513 275.006,27.307 274.614 C 25.732 274.102,24.674 272.391,23.557 268.547 C 21.254 260.627,21.186 260.740,27.750 261.678 C 38.254 263.180,53.767 262.382,62.500 259.891 C 74.858 256.367,92.690 256.253,104.250 259.624 C 105.740 260.059,106.000 259.439,106.000 255.451 C 106.000 251.064,106.143 250.809,108.250 251.428 C 109.487 251.792,113.875 252.814,118.000 253.701 M100.750 281.105 L 106.000 282.142 106.000 288.477 L 106.000 294.812 110.750 296.476 C 119.552 299.560,134.188 299.551,142.252 296.457 C 143.774 295.873,144.000 296.441,144.000 300.858 C 144.000 304.989,143.610 306.138,141.896 307.055 C 136.117 310.149,119.864 309.916,110.252 306.603 C 106.644 305.360,106.481 305.102,106.000 299.905 L 105.500 294.500 100.500 293.233 C 92.094 291.103,77.823 291.543,64.463 294.344 C 57.884 295.724,48.796 297.168,44.269 297.554 L 36.038 298.255 34.164 293.877 C 30.097 284.378,30.040 284.612,36.233 285.340 C 42.429 286.068,55.591 284.664,64.500 282.324 C 77.175 278.995,88.191 278.624,100.750 281.105 M100.732 303.513 L 105.902 305.048 106.201 310.743 L 106.500 316.437 112.000 318.158 C 118.820 320.291,132.960 320.518,139.341 318.598 L 144.000 317.196 144.000 322.520 C 144.000 327.770,143.948 327.863,140.250 329.172 C 134.640 331.159,118.738 330.722,112.000 328.398 L 106.500 326.500 106.199 321.275 C 105.899 316.085,105.868 316.041,101.699 314.775 C 99.096 313.984,92.180 313.526,83.500 313.569 C 71.154 313.629,68.560 313.949,61.543 316.278 L 53.586 318.919 48.839 313.709 C 46.227 310.844,44.070 308.227,44.045 307.892 C 44.020 307.558,46.735 306.999,50.078 306.650 C 53.421 306.300,58.933 305.279,62.328 304.381 C 75.942 300.778,90.421 300.451,100.732 303.513 M187.000 304.601 C 194.425 306.040,201.732 307.505,203.237 307.858 L 205.974 308.500 201.132 313.972 L 196.291 319.443 188.417 316.972 C 181.555 314.818,178.676 314.500,166.021 314.500 C 158.035 314.500,149.813 314.888,147.750 315.361 L 144.000 316.223 144.000 311.170 C 144.000 305.572,144.263 305.277,150.873 303.454 C 158.700 301.297,172.145 301.723,187.000 304.601 M100.425 325.415 L 105.500 326.537 106.000 333.019 L 106.500 339.500 114.000 340.814 C 121.277 342.089,138.553 341.876,142.228 340.466 C 143.501 339.977,143.981 338.327,144.205 333.660 L 144.500 327.500 149.500 326.182 C 159.428 323.565,185.000 324.862,185.000 327.983 C 185.000 328.414,182.188 330.445,178.750 332.496 C 172.955 335.954,171.844 336.248,163.500 336.531 C 158.550 336.700,152.250 337.437,149.500 338.169 C 144.885 339.398,144.462 339.768,144.000 342.985 C 143.547 346.146,143.127 346.537,139.500 347.178 C 133.392 348.257,121.922 348.125,113.541 346.878 L 106.000 345.757 106.000 342.406 C 106.000 339.191,105.768 338.987,100.250 337.358 C 97.010 336.401,90.789 335.618,86.000 335.565 C 77.993 335.476,77.137 335.250,71.250 331.663 C 67.813 329.569,65.000 327.470,65.000 326.999 C 65.000 326.181,72.143 324.397,78.500 323.628 C 82.681 323.122,94.361 324.074,100.425 325.415 M251.000 358.435 C 251.000 360.874,250.561 364.024,250.025 365.435 L 249.050 368.000 124.525 368.000 C 42.175 368.000,0.000 368.339,0.000 369.000 C 0.000 369.661,42.667 370.000,126.000 370.000 L 252.000 370.000 252.000 362.000 C 252.000 357.600,251.775 354.000,251.500 354.000 C 251.225 354.000,251.000 355.996,251.000 358.435 M61.750 364.750 C 95.988 364.896,152.013 364.896,186.250 364.750 C 220.488 364.604,192.475 364.485,124.000 364.485 C 55.525 364.485,27.513 364.604,61.750 364.750"/></svg>